<?xml version="1.0" standalone="no"?>
<!DOCTYPE svg PUBLIC "-//W3C//DTD SVG 20010904//EN"
 "http://www.w3.org/TR/2001/REC-SVG-20010904/DTD/svg10.dtd">
<svg version="1.0" xmlns="http://www.w3.org/2000/svg"
 width="700.000000pt" height="700.000000pt" viewBox="0 0 700.000000 700.000000"
 preserveAspectRatio="xMidYMid meet">
<metadata>
Created by potrace 1.14, written by Peter Selinger 2001-2017
</metadata>
<g transform="translate(0.000000,700.000000) scale(0.100000,-0.100000)"
fill="#000000" stroke="none">
<path d="M3280 6994 c-19 -2 -84 -9 -145 -14 -639 -62 -1264 -315 -1795 -726
-149 -115 -481 -446 -595 -594 -410 -532 -653 -1132 -727 -1795 -17 -155 -17
-575 0 -730 75 -673 332 -1300 748 -1820 114 -143 339 -372 484 -494 537 -451
1163 -717 1885 -803 142 -17 586 -17 730 0 682 79 1268 318 1802 734 138 107
389 351 512 498 451 538 717 1162 803 1885 16 139 16 595 0 730 -77 629 -275
1158 -620 1649 -234 333 -577 668 -917 896 -460 308 -968 495 -1535 566 -117
15 -552 27 -630 18z m1393 -1150 c229 -59 353 -218 373 -479 11 -144 -30 -269
-116 -349 -79 -74 -123 -90 -375 -141 -220 -44 -586 -141 -788 -209 -545 -182
-837 -378 -837 -561 0 -61 27 -112 93 -171 106 -96 226 -157 717 -364 664
-281 984 -479 1195 -743 148 -186 215 -375 215 -613 0 -203 -43 -358 -140
-505 -252 -385 -815 -586 -1700 -606 -285 -6 -434 3 -600 37 -424 89 -712 318
-776 621 -24 112 -15 251 20 323 54 110 143 152 300 143 74 -4 123 -15 264
-61 268 -87 429 -105 768 -87 314 17 481 44 704 116 l110 36 -16 31 c-66 128
-228 223 -769 453 -581 247 -847 397 -1066 603 -217 204 -338 445 -358 710
-25 343 95 627 389 923 200 201 456 378 765 529 400 196 878 340 1260 379 118
13 290 6 368 -15z"/>
</g>
</svg>
