<svg xmlns="http://www.w3.org/2000/svg" viewBox="0 0 1920 936.69"><defs><style>.cls-1{fill:#f1f1f2;}.cls-2{fill:none;stroke:#231f20;stroke-miterlimit:10;stroke-width:0.67px;}.cls-3{fill:#58595b;}</style></defs><g id="bg"><rect class="cls-1" x="-9.5" y="-9" width="1939" height="954.69"/></g><g id="Layer_1" data-name="Layer 1"><line class="cls-2" x1="65.09" y1="881.72" x2="1854.91" y2="54.97"/><line class="cls-2" x1="1854.91" y1="881.72" x2="65.09" y2="54.97"/><rect class="cls-1" x="592.21" y="400.51" width="735.58" height="135.67"/><path class="cls-3" d="M687,506.21c-10-4.09-17.56-13.91-17.56-31.76s8.11-33.19,17.34-44.87a4.51,4.51,0,0,1,3.64-2.08,4.39,4.39,0,0,1,4.25,4.24c0,1-.38,1.78-1.57,3.27-8,10.05-15.32,23.59-15.32,39.44,0,13.61,5.28,22.17,14.43,25.51,2.46.9,3.35,1.94,3.35,3.43a4.08,4.08,0,0,1-4,3.94C690.24,507.33,689.5,507.18,687,506.21Z"/><path class="cls-3" d="M699.54,438.51c0-3.13,2.46-5.13,5.88-5.13a6.41,6.41,0,0,1,6.55,6.39c0,2.16-1.49,4.77-5.29,4.77C702.52,444.54,699.54,441.86,699.54,438.51Zm1.86,44c0-14.65-.22-19-.22-26.48,0-3.28,1.49-5.73,4.91-5.73,2.6,0,4.39,1.71,4.46,5.28.08,5.36-.67,23.14-.67,28.94,0,2.39-1.19,4.1-3.94,4.1C702.74,488.66,701.4,486.35,701.4,482.55Z"/><path class="cls-3" d="M721,477.64c0-4.83.67-10,.67-14.8,0-2.53-.6-4.69-.6-6.85a2.94,2.94,0,0,1,3.2-2.9c2.75,0,4.09,2.16,4.61,5.43,2.09-5.58,5.14-8.4,8.93-8.4,5.43,0,7.82,6.32,9.45,16.29.52,3,1,5.28,1.34,7.07,3.94-14.21,9.9-23.36,15.55-23.36,6.62,0,9.23,5.95,10.49,18.22,1.27,13,3.95,13.1,3.95,16.74,0,2.16-1.64,3.43-4,3.43-3.65,0-5.95-4.32-7.29-15.11-1.27-10.19-1.86-12.87-3.43-15.1-5.43,5.88-8,14.51-11.23,26.49-.6,2.53-2.23,3.72-4.17,3.72-4.31,0-6.17-5.06-7.44-14.06-1.19-8.26-2-12.88-3.94-16-5.06,5.73-6.92,16.22-7.66,26.11-.23,2.76-1.49,3.95-3.5,3.95C722.08,488.51,721,483.08,721,477.64Z"/><path class="cls-3" d="M784.58,476.31c0-12.21,10.34-26.19,22.54-26.19A4.53,4.53,0,0,1,812,454.8a2.45,2.45,0,0,1-2.31,2.46,19.93,19.93,0,0,0-17,19.49,16.19,16.19,0,0,0,.3,3.42,7.3,7.3,0,0,0,3.27.53c5.88,0,11.09-7.22,13.24-20.91a3.52,3.52,0,0,1,3.58-3.28c2.82,0,5,2.16,5.65,5.14,1.64,8.11,3,13.24,8.18,19.57,1.94,2.23.23,7.14-3.12,7.14a3.65,3.65,0,0,1-3.12-1.64,33.33,33.33,0,0,1-7.07-14.51c-3.87,12-10.94,16.37-17.41,16.37C789.12,488.58,784.58,483.75,784.58,476.31Z"/><path class="cls-3" d="M836.44,494.46c0-3,1.86-5.43,4.46-5.43a2.35,2.35,0,0,1,2.68,2.6c0,4.54,4.54,7.74,12.5,7.74,5.5,0,7.22-3.2,7.22-8.93,0-6.77-1.49-11.53-2.68-16.66a16,16,0,0,1-14.81,8.77c-8.85,0-14.36-4.91-14.36-13.83,0-10.2,8.71-18.68,18.38-18.68,5.06,0,7.89,1.86,9.3,4.24a2.48,2.48,0,0,1,2.31-1c3.49,0,5.13,2.83,5.35,5.73,1,12.2,4.69,17.71,4.69,32.22,0,9.89-5.36,16-14.73,16C841,507.18,836.44,499.67,836.44,494.46Zm9.37-19.94c6.18,0,11.24-3.79,12.5-12.8h-.37c-2.83,0-2.31-3.87-6.92-3.87-5.88,0-11.46,5.29-11.46,10.64C839.56,472.44,841.5,474.52,845.81,474.52Z"/><path class="cls-3" d="M878.25,472.21c0-10.34,8-22.09,20.39-22.09,7.51,0,12.49,3.94,12.49,11.75,0,8.19-8.18,12.43-18.6,12.43a12,12,0,0,1-6.25-1.34v.37c0,4.69,2.24,8.11,8.41,8.11,11,0,14.06-5.88,17.19-5.88,1.49,0,2.08.89,2.08,2.9,0,4.39-8.41,10.12-18.75,10.12C883.38,488.58,878.25,481.74,878.25,472.21Zm8.7-3.94a37.75,37.75,0,0,0,4.84.45c6.55,0,11.68-2.76,11.68-6.7,0-2.9-1.41-4.46-4.83-4.46C893,457.56,888.59,462.24,887,468.27Z"/><path class="cls-3" d="M947.66,466.56c0-7.81,1.49-12.8,2-18.75.37-4.54.15-7,.37-9.45a3.21,3.21,0,0,1,3.5-3.35c3.57,0,5,3.57,4.47,11.39-.23,1.93-.45,3.72-.75,5.43a39,39,0,0,1,10.79-1.71c3.79,0,5.51,1.63,5.51,4.24,0,1.93-1.19,2.9-3.35,3.05a42.11,42.11,0,0,0-14.14,3.2c-.15,1.63-.22,3.49-.22,5.58,0,10.93,3,14.58,8.93,14.58,3.57,0,4.24-1.41,6.25-1.41,1.71,0,2.67,1.11,2.67,3.12,0,3.42-3.05,6.32-9.59,6.32C952.13,488.8,947.66,479.88,947.66,466.56Z"/><path class="cls-3" d="M978.24,469.39c0-10.79,9.75-18.83,15.33-18.83a5.31,5.31,0,0,1,1.93.37,12.35,12.35,0,0,1,3.28-.52c11.31,0,18,7.15,18,18.53s-7.81,19.79-18.15,19.79C986.8,488.73,978.24,480.62,978.24,469.39Zm20.16,11.9c6.18,0,10.27-4.91,10.27-12.35,0-6.77-3.49-10.94-9-10.94-2.83,0-4.32,1.27-6.32,3.28-2.24,2.3-2.68,3.64-4.77,3.64a4.14,4.14,0,0,1-1-.15,9.32,9.32,0,0,0-1,4.54C986.5,476.53,991.11,481.29,998.4,481.29Z"/><path class="cls-3" d="M1049.59,471.47c0-11.9,10.57-21.35,23-21.35,3.57,0,6.32,1.48,6.32,5.28,0,2.38-1.11,4.24-3.12,4.24-1.86,0-1.64-1.34-4.17-1.34A13.53,13.53,0,0,0,1057.85,472c0,5.13,3.2,8.56,9.3,8.56,8.41,0,7.89-4.77,11.08-4.77,1.72,0,2.68,1.12,2.68,3.2,0,5.51-6,9.53-13.76,9.53C1056.14,488.51,1049.59,481.66,1049.59,471.47Z"/><path class="cls-3" d="M1086.64,469.39c0-10.79,9.75-18.83,15.33-18.83a5.31,5.31,0,0,1,1.93.37,12.35,12.35,0,0,1,3.28-.52c11.3,0,18,7.15,18,18.53s-7.81,19.79-18.15,19.79C1095.2,488.73,1086.64,480.62,1086.64,469.39Zm20.16,11.9c6.18,0,10.27-4.91,10.27-12.35,0-6.77-3.5-10.94-9-10.94-2.83,0-4.32,1.27-6.33,3.28-2.23,2.3-2.67,3.64-4.76,3.64a4.14,4.14,0,0,1-1-.15,9.32,9.32,0,0,0-1,4.54C1094.9,476.53,1099.51,481.29,1106.8,481.29Z"/><path class="cls-3" d="M1134.18,477.64c0-4.83.67-10,.67-14.8,0-2.53-.59-4.69-.59-6.85a2.94,2.94,0,0,1,3.19-2.9c2.76,0,4.1,2.16,4.62,5.43,2.08-5.58,5.13-8.4,8.93-8.4,5.43,0,7.81,6.32,9.44,16.29.53,3,1,5.28,1.34,7.07,4-14.21,9.9-23.36,15.55-23.36,6.63,0,9.23,5.95,10.49,18.22,1.27,13,4,13.1,4,16.74,0,2.16-1.64,3.43-4,3.43-3.65,0-6-4.32-7.29-15.11-1.27-10.19-1.86-12.87-3.42-15.1-5.43,5.88-8,14.51-11.24,26.49-.59,2.53-2.23,3.72-4.16,3.72-4.32,0-6.18-5.06-7.44-14.06-1.2-8.26-2-12.88-4-16-5.06,5.73-6.92,16.22-7.66,26.11-.22,2.76-1.49,3.95-3.5,3.95C1135.3,488.51,1134.18,483.08,1134.18,477.64Z"/><path class="cls-3" d="M1197.87,472.21c0-10.34,8-22.09,20.38-22.09,7.52,0,12.5,3.94,12.5,11.75,0,8.19-8.18,12.43-18.6,12.43a12,12,0,0,1-6.25-1.34v.37c0,4.69,2.23,8.11,8.41,8.11,11,0,14.06-5.88,17.19-5.88,1.49,0,2.08.89,2.08,2.9,0,4.39-8.41,10.12-18.75,10.12C1203,488.58,1197.87,481.74,1197.87,472.21Zm8.7-3.94a37.35,37.35,0,0,0,4.84.45c6.55,0,11.68-2.76,11.68-6.7,0-2.9-1.41-4.46-4.84-4.46C1212.6,457.56,1208.21,462.24,1206.57,468.27Z"/><path class="cls-3" d="M1231.27,503.69c0-1.27.52-2.24,2-3.5a40.26,40.26,0,0,0,15.11-31.62c0-14.81-5.88-26.86-14.29-32.74-2.45-1.71-3.35-3.2-3.35-4.69a3.79,3.79,0,0,1,4-3.64c1.56,0,2.46.22,4.46,1.63,9.75,6.55,17.49,21.43,17.49,39.44,0,15.47-6.92,28.87-17.34,36.75-1.86,1.34-3.2,1.86-4.31,1.86A3.61,3.61,0,0,1,1231.27,503.69Z"/></g></svg>